<?xml version="1.0" encoding="UTF-8" standalone="no"?>
<!-- Generator: Blender, SVG Export for Grease Pencil - v2.1 -->

<svg
   version="1.1"
   x="0px"
   y="0px"
   width="451.395874px"
   height="451.395508px"
   viewBox="0 0 451.395874 451.395508"
   id="svg6"
   sodipodi:docname="assign_automatic_from_envelopes.svg"
   inkscape:version="1.4.3 (0d15f75042, 2025-12-25)"
   inkscape:export-filename="assign_automatic_from_envelopes.png"
   inkscape:export-xdpi="96"
   inkscape:export-ydpi="96"
   xmlns:inkscape="http://www.inkscape.org/namespaces/inkscape"
   xmlns:sodipodi="http://sodipodi.sourceforge.net/DTD/sodipodi-0.dtd"
   xmlns="http://www.w3.org/2000/svg"
   xmlns:svg="http://www.w3.org/2000/svg">
  <defs
     id="defs6" />
  <sodipodi:namedview
     id="namedview6"
     pagecolor="#ffffff"
     bordercolor="#000000"
     borderopacity="0.25"
     inkscape:showpageshadow="2"
     inkscape:pageopacity="0.0"
     inkscape:pagecheckerboard="true"
     inkscape:deskcolor="#d1d1d1"
     inkscape:zoom="1.7257593"
     inkscape:cx="225.69775"
     inkscape:cy="225.69775"
     inkscape:window-width="2560"
     inkscape:window-height="1007"
     inkscape:window-x="0"
     inkscape:window-y="0"
     inkscape:window-maximized="1"
     inkscape:current-layer="svg6" />
  <path
     d="M356.3236,31.982422L352.12024,39.84619L349.53186,48.37903L348.65784,57.252686L349.53186,66.126465L352.12024,74.65918L356.3236,82.52295L361.9801,89.41565L368.87292,95.07239L376.7367,99.275635L385.26917,101.86401L394.1432,102.737915L403.01672,101.86401L411.54944,99.275635L419.41345,95.07239L426.30603,89.41565L431.96277,82.52295L436.16614,74.65918L438.75427,66.126465L439.6283,57.252686L438.75427,48.37903L436.16614,39.84619L431.96277,31.982422L426.30603,25.089844L419.41345,19.433228L411.54944,15.229858L403.01672,12.6414795L394.1432,11.767456L385.26917,12.6414795L376.7367,15.229858L368.87292,19.433228L361.9801,25.089844z"
     fill-rule="evenodd"
     fill="#FEFEFE"
     stroke="none"
     fill-opacity="0.5"
     id="path4" />
  <path
     d="M86.11316,401.79498L86.327515,396.05164L84.85266,388.10553L81.85339,381.68372L77.71057,376.40515L72.43201,372.26257L66.010376,369.26318L58.064087,367.7882L52.320923,368.0025L47.39612,369.03522L48.268433,365.94226L49.445435,363.15363L50.812134,360.555L52.342163,358.1195L310.7777,74.9657L315.04504,71.157104L319.65955,67.695435L325.0121,64.97241L330.78162,62.666138L329.68103,70.05481L329.8546,78.71777L332.87878,90.818115L337.69006,101.1311L344.5714,109.37451L352.81458,116.25574L363.1278,121.06714L375.2279,124.09131L383.891,124.26489L391.27966,123.164185L388.9735,128.93372L386.25037,134.2865L382.7887,138.90063L378.98035,143.16797L95.996216,401.77374L93.56067,403.30365L90.96228,404.6706L88.173706,405.8474L85.08069,406.7199z"
     fill-rule="evenodd"
     fill="#FEFEFE"
     stroke="none"
     fill-opacity="0.5"
     id="path5" />
  <path
     d="M16.255493,398.20422L13.794678,402.80804L12.279175,407.80353L11.767456,412.99866L12.279175,418.19385L13.794556,423.18933L16.255493,427.7932L19.567017,431.8285L23.602417,435.1402L28.20642,437.60107L33.201782,439.11633L38.39685,439.62805L43.592163,439.11633L48.587524,437.601L53.191284,435.1402L57.226685,431.8285L60.538452,427.79315L62.999146,423.18933L64.51477,418.19385L65.02649,412.99866L64.51477,407.80353L62.999146,402.80804L60.538452,398.20422L57.226685,394.16895L53.191284,390.85718L48.587524,388.39636L43.592163,386.88098L38.397095,386.36932L33.201782,386.88098L28.20642,388.39636L23.602417,390.85718L19.567017,394.16888z"
     fill-rule="evenodd"
     fill="#FEFEFE"
     stroke="none"
     fill-opacity="0.5"
     id="path6" />
</svg>
