<?xml version="1.0" encoding="UTF-8" standalone="no"?>
<!-- Generator: Blender, SVG Export for Grease Pencil - v2.1 -->

<svg
   version="1.1"
   x="0px"
   y="0px"
   width="686.134155px"
   height="686.134033px"
   viewBox="0 0 686.134155 686.134033"
   id="svg8"
   sodipodi:docname="assign_automatic_from_envelopes.svg"
   inkscape:version="1.4.3 (0d15f75042, 2025-12-25)"
   inkscape:export-filename="assign_automatic_from_envelopes.png"
   inkscape:export-xdpi="4.4772587"
   inkscape:export-ydpi="4.4772587"
   xmlns:inkscape="http://www.inkscape.org/namespaces/inkscape"
   xmlns:sodipodi="http://sodipodi.sourceforge.net/DTD/sodipodi-0.dtd"
   xmlns="http://www.w3.org/2000/svg"
   xmlns:svg="http://www.w3.org/2000/svg">
  <defs
     id="defs8" />
  <sodipodi:namedview
     id="namedview8"
     pagecolor="#ffffff"
     bordercolor="#000000"
     borderopacity="0.25"
     inkscape:showpageshadow="2"
     inkscape:pageopacity="0.0"
     inkscape:pagecheckerboard="true"
     inkscape:deskcolor="#d1d1d1"
     inkscape:zoom="1.1353467"
     inkscape:cx="343.06702"
     inkscape:cy="343.06702"
     inkscape:window-width="2560"
     inkscape:window-height="1007"
     inkscape:window-x="0"
     inkscape:window-y="0"
     inkscape:window-maximized="1"
     inkscape:current-layer="svg8" />
  <path
     d="M 637.81213,48.321777 596.59216,20.936401 548.3793,12.120972 500.6781,23.382568 460.75134,53.006836 34.881714,524.68787 l -17.288941,28.828 -5.471801,33.62439 7.178711,33.30157 18.483397,27.65667 27.9093,18.736 33.30152,7.17856 33.62426,-5.47166 28.82801,-17.289 471.68113,-425.8698 29.6243,-39.92688 11.26146,-47.70096 -8.81543,-48.21301 z"
     fill-rule="evenodd"
     fill="#fefefe"
     stroke="none"
     fill-opacity="0.3"
     id="path8"
     style="display:inline" />
  <path
     d="M497.92493,112.50134L492.88098,121.93787L489.77478,132.17712L488.7262,142.82568L489.77478,153.47412L492.88098,163.71338L497.92493,173.1499L504.713,181.42111L512.98425,188.20914L522.4208,193.25308L532.66003,196.3591L543.3085,197.40793L553.9569,196.3591L564.19617,193.25308L573.6327,188.20914L581.9042,181.42111L588.6918,173.1499L593.7357,163.71338L596.8419,153.47412L597.89075,142.82568L596.8419,132.17712L593.7357,121.93787L588.6918,112.50134L581.9042,104.2301L573.6327,97.44214L564.19617,92.39819L553.9569,89.292114L543.3085,88.24341L532.66003,89.292114L522.4208,92.39819L512.98425,97.44214L504.713,104.2301z"
     fill-rule="evenodd"
     fill="#FEFEFE"
     stroke="none"
     fill-opacity="0.600000024"
     id="path4" />
  <path
     d="M173.67297,556.2761L173.9303,549.3841L172.16028,539.84875L168.56091,532.1426L163.58972,525.80835L157.25562,520.8373L149.54944,517.2379L140.01404,515.4679L133.12207,515.7251L127.212036,516.9645L128.25903,513.2529L129.67139,509.90646L131.31152,506.78824L133.14746,503.86563L443.27014,164.08105L448.391,159.51086L453.9281,155.35693L460.35144,152.08923L467.27478,149.32166L465.95398,158.18799L466.16223,168.5835L469.79114,183.10403L475.56506,195.4797L483.8224,205.37167L493.71448,213.62912L506.08997,219.40292L520.6107,223.03183L531.0062,223.24014L539.87244,221.91934L537.10486,228.8428L533.8373,235.26602L529.6832,240.80313L525.1129,245.92386L185.53247,556.2506L182.60999,558.0866L179.49158,559.7268L176.14539,561.13904L172.43384,562.18604z"
     fill-rule="evenodd"
     fill="#FEFEFE"
     stroke="none"
     fill-opacity="0.600000024"
     id="path5" />
  <path
     d="M89.843506,551.96716L86.890625,557.49176L85.07214,563.4864L84.45813,569.7205L85.07214,575.9547L86.890625,581.94934L89.843506,587.474L93.81775,592.3163L98.65991,596.2904L104.18457,599.2434L110.1792,601.06177L116.41321,601.6758L122.64746,601.06177L128.64197,599.24335L134.16663,596.2904L139.00916,592.3163L142.98315,587.47394L145.93604,581.94934L147.75452,575.9547L148.36853,569.7205L147.75452,563.4864L145.93604,557.4918L142.98315,551.96716L139.00916,547.12476L134.16663,543.15076L128.64197,540.19775L122.64746,538.37933L116.41345,537.76526L110.1792,538.37933L104.18457,540.19775L98.65991,543.15076L93.81775,547.12476z"
     fill-rule="evenodd"
     fill="#FEFEFE"
     stroke="none"
     fill-opacity="0.600000024"
     id="path6" />
</svg>
